<svg id="Layer_1" data-name="Layer 1" xmlns="http://www.w3.org/2000/svg" viewBox="0 0 500 500"><defs><style>.cls-1{fill:#fff;}</style></defs><title>1</title><path d="M9.07,247.34c-1-133.13,111-238.75,239.43-237.21C380.56,11.72,487.85,119.35,486.33,249.6c-1.53,131.8-109.65,238.25-240.71,237C113.62,485.37,8,378.51,9.07,247.34ZM321.15,370.23c15.2-2.65,30.61-4.47,45.48-8.35A33.31,33.31,0,0,0,383.8,350c17.65-24.46,27.09-52.67,34.05-81.7a18.43,18.43,0,0,0-2.21-12.63c-9.36-15.19-19.29-30-29.31-44.81C376.9,197,365,192,348.77,200.18a44.64,44.64,0,0,1-20,4.8c-16-.27-19.64,10.17-23.09,22.56-7.35,26.44-18.33,51.38-36.92,72-7.47,8.27-9.36,15.5-3.2,24.86,2.66,4,4,9,7,12.77C285.17,353,296.74,370.72,321.15,370.23Zm-72.23,64.92c12.76,2.78,19.61-4.36,24.78-14.1,6.09-11.45,12-23,17.56-34.72,3.56-7.54.66-12.89-5.05-19.25A273.63,273.63,0,0,1,255,325.59c-4.86-8.12-8.89-11.17-18.52-11.48-23.47-.75-47.26-1.53-70.19-6-29.3-5.75-29-7.33-42.29,19.54-1.62,3.27-2.91,6.73-4.72,9.9-5.26,9.21-5.3,18.29-.52,27.76,13.17,26.1,26.54,52,59.27,57.88C201.64,427.4,225.3,431.17,248.92,435.15ZM375.08,125.43c1.64-6.07-3-13.59-10.06-20.7-17.8-17.91-38.77-30.91-61.68-41C300,62.25,296,60.05,292.9,60.84c-18.42,4.73-38.23,7.46-54.32,16.58-8.88,5-11.45,21.23-16.8,32.42-.7,1.46-.83,3.2-1.57,4.62-3.65,7-.89,11.49,5.43,15a296.63,296.63,0,0,1,78.21,61.93c3.07,3.4,10.16,5.38,14.88,4.66,12.41-1.9,24.53-5.64,36.76-8.66,8.54-2.11,13.1-7.53,14.08-16.29C371.12,157.28,372.88,143.53,375.08,125.43ZM131,293.13c-1.47-4.44-2.77-7.87-3.73-11.38-5.7-20.7-15.43-41.34-15.84-62.17-.46-22.71-9.54-32.3-28.95-38.69-7.36-2.43-11.89-1.87-17.6,2.32-28.84,21.14-38.62,48.89-33.86,84.31,4.84,36,18.11,63.09,56.87,70.89a36.27,36.27,0,0,1,5.73,2.11c7.79,3.06,12.71,1.22,16.36-7,4.76-10.74,11.1-20.78,16.66-31.17C128.36,299.18,129.74,295.88,131,293.13ZM77.48,157c0,10.65,7,14.16,14.55,17,9.7,3.7,18,11.24,30.06,2,20.23-15.44,41.26-30.34,63.64-42.3,14.69-7.86,23.93-16.43,29-32.77,8.91-28.9,10.16-28.67-18.68-39.41-14-5.22-28.36-11.74-43.18-2.76-18.36,11.11-36.56,22.49-54.45,34.34-3.38,2.24-6,6.92-7.16,11C86.27,121.67,82,139.37,77.48,157ZM479,233.08c-1.54-9.64-2.82-19.33-4.65-28.91a219.55,219.55,0,0,0-42.54-94.87c-2.27-2.93-7.91-5.91-10.95-5.07a185.89,185.89,0,0,0-30.76,11.68c-2.88,1.38-5.25,6.23-5.75,9.78-2.49,17.73-4.61,35.54-6.08,53.38-.32,3.91,1.67,8.69,4,12,13.17,18.5,27.11,36.45,40.05,55.1,4.37,6.31,8.34,8.85,16.05,6.74a164.88,164.88,0,0,1,28.75-5.43C476.83,246.65,480.17,242.25,479,233.08ZM293,474.6c2-.35,3.57-.59,5.16-.93C338,465.08,372.7,446.48,403,419.36c5.88-5.26,5.31-9.9.49-15.57-6.84-8-12.47-17.21-19.91-24.59-3.57-3.53-10.23-5.89-15.29-5.58-17.37,1.05-34.61,4.24-52,5.14-8.34.44-12.05,3.6-15.33,10.73-6.58,14.31-13.71,28.44-21.65,42-6.11,10.44-1.16,36.27,9.29,42C290,474.28,291.72,474.31,293,474.6ZM39.41,349.18c1.09,2.45,2.62,6.63,4.71,10.5,14.09,26.1,33.15,48.22,55.87,67,23.45,19.37,19,14.33,35.45-5.62,1.5-1.81,1.7-6.36.49-8.49-9.23-16.14-19.69-31.61-28.34-48-10.51-20-33.27-16-48.41-26.52A21.67,21.67,0,0,0,56,336.15C46.5,331.72,39.43,336.47,39.41,349.18ZM240.26,16.6c-14.38,2.27-33.7,4.7-52.67,8.78-4.51,1-9.05,7-11,11.72-.73,1.76,5.23,7.84,9.2,9.75,12.72,6.14,25.86,11.47,39,16.62,3.57,1.4,8.14,2.31,11.69,1.35,16.41-4.45,32.75-9.24,48.85-14.68,11.17-3.77,6.59-14.46,7.33-22.14.23-2.37-6-7.22-9.72-7.77C270.51,18.37,257.87,18,240.26,16.6ZM18.8,210.72,22.09,214a84.26,84.26,0,0,0,7.29-6.26c11-11.78,22.18-23.41,32.6-35.69a37.51,37.51,0,0,0,7.69-15.53c3.71-16.55,6.56-33.3,9.49-50,.6-3.42.09-7,.09-10.55l-4.4-1C44,127.58,26.2,166.58,18.8,210.72Z"/><path class="cls-1" d="M321.15,370.23c-24.41.49-36-17.25-48.61-33.11-3-3.74-4.36-8.72-7-12.77-6.16-9.36-4.27-16.59,3.2-24.86,18.59-20.57,29.57-45.51,36.92-72,3.45-12.39,7.06-22.83,23.09-22.56a44.64,44.64,0,0,0,20-4.8C365,192,376.9,197,386.33,210.87c10,14.77,19.95,29.62,29.31,44.81a18.43,18.43,0,0,1,2.21,12.63c-7,29-16.4,57.24-34.05,81.7a33.31,33.31,0,0,1-17.17,11.87C351.76,365.76,336.35,367.58,321.15,370.23Z"/><path class="cls-1" d="M248.92,435.15c-23.62-4-47.28-7.75-70.85-12-32.73-5.88-46.1-31.78-59.27-57.88-4.78-9.47-4.74-18.55.52-27.76,1.81-3.17,3.1-6.63,4.72-9.9,13.29-26.87,13-25.29,42.29-19.54,22.93,4.5,46.72,5.28,70.19,6,9.63.31,13.66,3.36,18.52,11.48a273.63,273.63,0,0,0,31.17,41.49c5.71,6.36,8.61,11.71,5.05,19.25-5.54,11.72-11.47,23.27-17.56,34.72C268.53,430.79,261.68,437.93,248.92,435.15Z"/><path class="cls-1" d="M375.08,125.43c-2.2,18.1-4,31.85-5.51,45.62-1,8.76-5.54,14.18-14.08,16.29-12.23,3-24.35,6.76-36.76,8.66-4.72.72-11.81-1.26-14.88-4.66a296.63,296.63,0,0,0-78.21-61.93c-6.32-3.46-9.08-7.93-5.43-15,.74-1.42.87-3.16,1.57-4.62,5.35-11.19,7.92-27.38,16.8-32.42,16.09-9.12,35.9-11.85,54.32-16.58,3.05-.79,7.12,1.41,10.44,2.87,22.91,10.11,43.88,23.11,61.68,41C372.08,111.84,376.72,119.36,375.08,125.43Z"/><path class="cls-1" d="M131,293.13c-1.29,2.75-2.67,6.05-4.36,9.19-5.56,10.39-11.9,20.43-16.66,31.17-3.65,8.25-8.57,10.09-16.36,7a36.27,36.27,0,0,0-5.73-2.11c-38.76-7.8-52-34.87-56.87-70.89-4.76-35.42,5-63.17,33.86-84.31,5.71-4.19,10.24-4.75,17.6-2.32,19.41,6.39,28.49,16,28.95,38.69.41,20.83,10.14,41.47,15.84,62.17C128.26,285.26,129.56,288.69,131,293.13Z"/><path class="cls-1" d="M77.48,157c4.52-17.63,8.79-35.33,13.75-52.84,1.15-4.07,3.78-8.75,7.16-11,17.89-11.85,36.09-23.23,54.45-34.34,14.82-9,29.14-2.46,43.18,2.76C224.86,72.33,223.61,72.1,214.7,101c-5,16.34-14.28,24.91-29,32.77-22.38,12-43.41,26.86-63.64,42.3-12,9.19-20.36,1.65-30.06-2C84.53,171.16,77.5,167.65,77.48,157Z"/><path class="cls-1" d="M479,233.08c1.2,9.17-2.14,13.57-11.84,14.43a164.88,164.88,0,0,0-28.75,5.43c-7.71,2.11-11.68-.43-16.05-6.74-12.94-18.65-26.88-36.6-40.05-55.1-2.37-3.34-4.36-8.12-4-12,1.47-17.84,3.59-35.65,6.08-53.38.5-3.55,2.87-8.4,5.75-9.78a185.89,185.89,0,0,1,30.76-11.68c3-.84,8.68,2.14,10.95,5.07a219.55,219.55,0,0,1,42.54,94.87C476.15,213.75,477.43,223.44,479,233.08Z"/><path class="cls-1" d="M293,474.6c-1.28-.29-3-.32-4.38-1.07-10.45-5.73-15.4-31.56-9.29-42,7.94-13.6,15.07-27.73,21.65-42,3.28-7.13,7-10.29,15.33-10.73,17.36-.9,34.6-4.09,52-5.14,5.06-.31,11.72,2.05,15.29,5.58,7.44,7.38,13.07,16.55,19.91,24.59,4.82,5.67,5.39,10.31-.49,15.57-30.29,27.12-65,45.72-104.83,54.31C296.57,474,295,474.25,293,474.6Z"/><path class="cls-1" d="M39.41,349.18c0-12.71,7.09-17.46,16.63-13A21.67,21.67,0,0,1,59.18,338c15.14,10.56,37.9,6.56,48.41,26.52,8.65,16.42,19.11,31.89,28.34,48,1.21,2.13,1,6.68-.49,8.49-16.47,19.95-12,25-35.45,5.62-22.72-18.78-41.78-40.9-55.87-67C42,355.81,40.5,351.63,39.41,349.18Z"/><path class="cls-1" d="M240.26,16.6c17.61,1.36,30.25,1.77,42.67,3.63,3.74.55,9.95,5.4,9.72,7.77-.74,7.68,3.84,18.37-7.33,22.14-16.1,5.44-32.44,10.23-48.85,14.68-3.55,1-8.12.05-11.69-1.35-13.16-5.15-26.3-10.48-39-16.62-4-1.91-9.93-8-9.2-9.75,2-4.75,6.52-10.75,11-11.72C206.56,21.3,225.88,18.87,240.26,16.6Z"/><path class="cls-1" d="M18.8,210.72C26.2,166.58,44,127.58,74.85,95l4.4,1c0,3.52.51,7.13-.09,10.55-2.93,16.71-5.78,33.46-9.49,50A37.51,37.51,0,0,1,62,172.05c-10.42,12.28-21.6,23.91-32.6,35.69A84.26,84.26,0,0,1,22.09,214Z"/></svg>