<svg id="Layer_1" data-name="Layer 1" xmlns="http://www.w3.org/2000/svg" viewBox="0 0 500 500"><defs><style>.cls-1{fill:#fff;}</style></defs><title>10</title><path d="M170.45,27.94q56.7,0,113.39,0C309,28,323.36,42.43,323.4,67.65c0,12.73.05,12.6,12,16.3q53.11,16.49,106.17,33.17c20.63,6.52,30.88,25.44,24.56,46-15.81,51.44-31.91,102.78-47.93,154.16q-21,67.33-42,134.67c-8.78,28.25-26.85,32.65-49.53,26.26-52.85-14.9-105-32.32-157.42-48.72-22.66-7.09-45.28-14.29-68-21.17-3.58-1.08-7.58-1-11.39-1-11.77-.12-23.54,0-35.3-.06-23.28-.12-38.07-14.95-38.08-38.41q-.06-142.28,0-284.56c0-6.33-.05-12.67,0-19C16.6,43.42,31.84,28,53.67,28,92.6,27.86,131.53,27.94,170.45,27.94ZM305.62,217.48q0-74.68,0-149.38c0-15.26-7.07-22.26-22.48-22.26q-113,0-226.06,0c-15.92,0-22.79,6.82-22.79,22.62q0,149.06,0,298.09c0,16.11,6.61,22.82,22.48,22.82H282.82c16.3,0,22.79-6.6,22.79-23.18Q305.63,291.84,305.62,217.48ZM164.09,407.27l-.4,1.27c2,.78,4,1.67,6.07,2.32Q250.37,436,331,461.07c15.25,4.74,23.15.62,27.92-14.53,6.18-19.63,12.23-39.31,18.35-59q35.1-112.69,70.19-225.42c5.22-16.84.91-24.33-15.86-29.46-20.1-6.16-40.14-12.53-60.23-18.76-15.73-4.88-31.48-9.69-48-14.76v8.69q0,129.7,0,259.43c0,25.81-14.09,39.95-39.82,40Q223.83,407.3,164.09,407.27Z"/><path class="cls-1" d="M305.62,217.48q0,74.36,0,148.71c0,16.58-6.49,23.18-22.79,23.18H56.76c-15.87,0-22.48-6.71-22.48-22.82q0-149,0-298.09c0-15.8,6.87-22.62,22.79-22.62q113,0,226.06,0c15.41,0,22.48,7,22.48,22.26Q305.64,142.79,305.62,217.48ZM175,232.66c3.17.86,5.07,1.48,7,1.87,10.76,2.18,21.19,1.81,28.26-7.91s5.34-20.1-.47-30c-10-17-24.53-29.82-40.05-42.36-5.83,5.13-11.51,9.63-16.57,14.74-6.36,6.41-12.73,12.93-18.12,20.14a54.87,54.87,0,0,0-8.85,17.34c-4.55,16,6,29.32,22.62,29.07,5-.08,10.08-1.5,15.75-2.4-4.11,10-8.1,19.67-12.44,30.22h35.61ZM54.37,299.94C62.31,322.39,70,344.34,78,366.16c.79,2.17,3.42,4.34,5.68,5.13,3.85,1.35,5.37-1.59,6.53-4.92,5.66-16.21,11.5-32.35,17.27-48.52,2.1-5.89,4.18-11.78,6.35-17.91-6-1.95-9.93-1.33-11.35,5a21.18,21.18,0,0,1-2.48,7c-1.13,1.71-3.29,3.75-5.08,3.84-8.33.4-16.69.18-25.29.18-1.29-3.66-2.89-7-3.59-10.47C64.66,298.78,60.75,297.87,54.37,299.94ZM285,135.85a6,6,0,0,0,0-1.9c-7.75-22-15.44-43.94-23.5-65.79-.66-1.79-3.89-3.72-5.85-3.64a7.63,7.63,0,0,0-5.61,4.07c-7.63,20.56-14.92,41.25-22.26,61.91-.58,1.66-.86,3.42-1.38,5.51,4.36.42,9.12,2.43,10.05-3.66,1.88-12.24,9.58-14.63,20.16-13a27.35,27.35,0,0,0,3.39,0c11.85.35,9.81-2.51,13.7,10.07C275.66,135.73,278.63,138.13,285,135.85Z"/><path class="cls-1" d="M164.09,407.27q59.73,0,119.48,0c25.73,0,39.82-14.16,39.82-40q0-129.72,0-259.43V99.18c16.5,5.07,32.25,9.88,48,14.76,20.09,6.23,40.13,12.6,60.23,18.76,16.77,5.13,21.08,12.62,15.86,29.46q-35,112.76-70.19,225.42c-6.12,19.65-12.17,39.33-18.35,59-4.77,15.15-12.67,19.27-27.92,14.53Q250.37,436,169.76,410.86c-2.06-.65-4-1.54-6.07-2.32ZM408.58,219.19c0-1.9.06-3.66,0-5.42-.76-21.49-1.62-43-2.25-64.47-.1-3.6-.9-5.75-4.67-7-4.09-1.33-5.69.91-7.67,3.55-10.44,14-21,27.83-31.44,41.76-3.59,4.78-7.06,9.65-10.79,14.77,4.64,1.54,7.91,4.11,11.61-.72,8.37-10.9,8.63-10.71,21.66-6.39,1.28.42,2.55.9,3.85,1.31,10.31,3.27,10.64,3.27,10.51,14C399.3,217,401.69,219.71,408.58,219.19Z"/><path d="M175,232.66l12.76,30.74H152.17c4.34-10.55,8.33-20.22,12.44-30.22-5.67.9-10.7,2.32-15.75,2.4-16.59.25-27.17-13.11-22.62-29.07a54.87,54.87,0,0,1,8.85-17.34c5.39-7.21,11.76-13.73,18.12-20.14,5.06-5.11,10.74-9.61,16.57-14.74,15.52,12.54,30,25.32,40.05,42.36,5.81,9.87,7.59,20.21.47,30s-17.5,10.09-28.26,7.91C180.09,234.14,178.19,233.52,175,232.66Z"/><path d="M54.37,299.94c6.38-2.07,10.29-1.16,11.63,5.5.7,3.5,2.3,6.81,3.59,10.47,8.6,0,17,.22,25.29-.18,1.79-.09,4-2.13,5.08-3.84a21.18,21.18,0,0,0,2.48-7c1.42-6.29,5.34-6.91,11.35-5-2.17,6.13-4.25,12-6.35,17.91-5.77,16.17-11.61,32.31-17.27,48.52-1.16,3.33-2.68,6.27-6.53,4.92-2.26-.79-4.89-3-5.68-5.13C70,344.34,62.31,322.39,54.37,299.94Zm28.9,55.51,1.52.16c3.47-10,6.95-20,10.61-30.58H72.88C76.5,335.64,79.88,345.55,83.27,355.45Z"/><path d="M285,135.85c-6.41,2.28-9.38-.12-11.32-6.37-3.89-12.58-1.85-9.72-13.7-10.07a27.35,27.35,0,0,1-3.39,0c-10.58-1.67-18.28.72-20.16,13-.93,6.09-5.69,4.08-10.05,3.66.52-2.09.8-3.85,1.38-5.51,7.34-20.66,14.63-41.35,22.26-61.91a7.63,7.63,0,0,1,5.61-4.07c2-.08,5.19,1.85,5.85,3.64C269.58,90,277.27,112,285,134A6,6,0,0,1,285,135.85Zm-28.47-56-1.58.21-10.43,30.28h22.5C263.39,99.71,260,89.79,256.57,79.87Z"/><path d="M408.58,219.19c-6.89.52-9.28-2.2-9.2-8.62.13-10.7-.2-10.7-10.51-14-1.3-.41-2.57-.89-3.85-1.31-13-4.32-13.29-4.51-21.66,6.39-3.7,4.83-7,2.26-11.61.72,3.73-5.12,7.2-10,10.79-14.77,10.46-13.93,21-27.8,31.44-41.76,2-2.64,3.58-4.88,7.67-3.55,3.77,1.23,4.57,3.38,4.67,7,.63,21.5,1.49,43,2.25,64.47C408.64,215.53,408.58,217.29,408.58,219.19Zm-10.67-61.05-1.7-.73L376.77,183.6l21.14,6.53Z"/><path class="cls-1" d="M83.27,355.45c-3.39-9.9-6.77-19.81-10.39-30.42H95.4c-3.66,10.54-7.14,20.56-10.61,30.58Z"/><path class="cls-1" d="M256.57,79.87c3.41,9.92,6.82,19.84,10.49,30.49h-22.5L255,80.08Z"/><path class="cls-1" d="M397.91,158.14v32l-21.14-6.53,19.44-26.19Z"/></svg>