<svg id="Layer_1" data-name="Layer 1" xmlns="http://www.w3.org/2000/svg" viewBox="0 0 500 500"><defs><style>.cls-1{fill:#fff;}</style></defs><title>2</title><path d="M486.12,261C486,391.18,380,496.92,249.88,496.85,119,496.77,13.1,390.55,13.38,259.59c.28-129.73,107-235.87,236.93-235.4C382.4,24.66,486.69,132.38,486.12,261ZM239.82,124.85c-.3,4-.44,7.17-.79,10.32-2.47,22-11.84,41.38-23.1,60-17.53,28.9-39.31,54.57-61.1,80.25-21.34,25.14-42.72,50.26-63.41,75.94-6.19,7.69-10.46,17.05-14.93,26-2.59,5.19-1.92,10.5,2.58,15.17,5.44,5.66,10.09,12.09,15.55,17.73,30.53,31.55,67.32,52,110.18,61.52,3.72.83,5.4-.18,7-3.36,3.28-6.4,6.94-12.61,10.49-18.87,24.59-43.25,41.48-89.21,47.54-138.73,3.06-25.08,5.71-50.27,7-75.49,1.81-34.94,2.14-70,3.22-104.95.1-3.32-1.09-4.45-4.23-4.55-6.36-.19-12.71-.72-19.07-.9C251.14,124.72,245.49,124.85,239.82,124.85Zm61,3.21c0,3.57,0,5.55,0,7.52-.92,55.95-2.09,111.86-8.82,167.52a406.85,406.85,0,0,1-47.43,148.31c-4.3,7.84-8.5,15.75-13,24.06,15.9,1.76,31.06,1,46.21-1,43.63-5.71,81.78-23.44,114.83-52.31a11.16,11.16,0,0,0,3.49-4.77c3-10.42,6.64-20.78,8.16-31.43,3.12-21.86-1.25-43.22-8.63-63.64C385.72,295,374.49,268.08,363.87,241c-12.46-31.82-22.58-64.15-21.5-98.93,0-1.29-1.45-3.49-2.63-3.81C327.2,134.77,314.57,131.6,300.79,128.06ZM59.61,363c3.14-5.34,5.24-10,8.27-13.9,13.91-18,27.61-36.19,42.26-53.56,25.57-30.32,52.64-59.4,75.52-91.92,12.45-17.7,24.05-35.92,30.12-57,1.82-6.3,2.53-12.92,3.71-19.19a11.69,11.69,0,0,0-2.05-.72,21,21,0,0,0-2.51.13c-39.62,4.24-77.55,14.59-113.38,32.13-18.87,9.24-36.79,20.08-51.14,35.75-4.08,4.46-8.64,9.63-10,15.22-11,44-7.71,87.29,8.59,129.56C51.94,347.28,55.8,354.68,59.61,363Zm365.33,20.75,1.6.39c1.37-2,2.82-3.93,4.11-6,30.07-47.17,40.88-98.36,31.86-153.62a16.17,16.17,0,0,0-3.56-7.46A257.3,257.3,0,0,0,391,160.49c-8.8-5-18-9.3-28-14.41,0,2.9,0,4.51,0,6.12.68,21.13,5.36,41.53,12.69,61.19,9.4,25.23,19.83,50.07,29.73,75.11,9.05,22.93,17,46.23,19.38,70.93C425.6,367.47,424.94,375.65,424.94,383.77ZM216.47,105.86C214.67,84.7,197.12,67.71,175,65.32c-7.29-.79-14.46-1.47-21.56,2.14a216.4,216.4,0,0,0-75.39,62.69c-6.7,8.81-12.4,18.37-18.55,27.59l1.11,1.08C107.78,127.27,160.43,112,216.47,105.86Zm-17.06-55c23.2,11.63,34,30.48,38.51,54h42.34V46.8C253.41,43.64,227.06,44,199.41,50.88ZM371.12,82.6C356.89,70.53,315,52,301.31,52v55.83l44.06,10.26c3.42-6.45,6.2-13.37,10.45-19.21S366,88,371.12,82.6Zm-4.93,43.55a285.17,285.17,0,0,1,81.71,50.36,12.77,12.77,0,0,0-.24-2.07c-1-2.29-2.05-4.58-3.13-6.84A215.57,215.57,0,0,0,394,100.18c-1.47-1.33-4.26-2.52-6-2.06C377.69,100.88,366.89,114.94,366.19,126.15Z"/><path class="cls-1" d="M239.82,124.85c5.67,0,11.32-.13,17,0,6.36.18,12.71.71,19.07.9,3.14.1,4.33,1.23,4.23,4.55-1.08,35-1.41,70-3.22,105-1.3,25.22-3.95,50.41-7,75.49-6.06,49.52-23,95.48-47.54,138.73-3.55,6.26-7.21,12.47-10.49,18.87-1.63,3.18-3.31,4.19-7,3.36-42.86-9.56-79.65-30-110.18-61.52-5.46-5.64-10.11-12.07-15.55-17.73-4.5-4.67-5.17-10-2.58-15.17,4.47-8.94,8.74-18.3,14.93-26,20.69-25.68,42.07-50.8,63.41-75.94,21.79-25.68,43.57-51.35,61.1-80.25,11.26-18.58,20.63-38,23.1-60C239.38,132,239.52,128.85,239.82,124.85Z"/><path class="cls-1" d="M300.79,128.06c13.78,3.54,26.41,6.71,38.95,10.16,1.18.32,2.67,2.52,2.63,3.81-1.08,34.78,9,67.11,21.5,98.93,10.62,27.12,21.85,54,31.74,81.38,7.38,20.42,11.75,41.78,8.63,63.64-1.52,10.65-5.2,21-8.16,31.43a11.16,11.16,0,0,1-3.49,4.77c-33,28.87-71.2,46.6-114.83,52.31-15.15,2-30.31,2.74-46.21,1,4.48-8.31,8.68-16.22,13-24.06A406.85,406.85,0,0,0,292,303.1c6.73-55.66,7.9-111.57,8.82-167.52C300.82,133.61,300.79,131.63,300.79,128.06Z"/><path class="cls-1" d="M59.61,363c-3.81-8.34-7.67-15.74-10.65-23.47C32.66,297.28,29.34,254,40.37,210c1.4-5.59,6-10.76,10-15.22C64.76,179.1,82.68,168.26,101.55,159c35.83-17.54,73.76-27.89,113.38-32.13a21,21,0,0,1,2.51-.13,11.69,11.69,0,0,1,2.05.72c-1.18,6.27-1.89,12.89-3.71,19.19-6.07,21.05-17.67,39.27-30.12,57-22.88,32.52-49.95,61.6-75.52,91.92-14.65,17.37-28.35,35.57-42.26,53.56C64.85,353,62.75,357.68,59.61,363Z"/><path class="cls-1" d="M424.94,383.77c0-8.12.66-16.3-.13-24.34-2.42-24.7-10.33-48-19.38-70.93-9.9-25-20.33-49.88-29.73-75.11-7.33-19.66-12-40.06-12.69-61.19-.05-1.61,0-3.22,0-6.12,10,5.11,19.2,9.38,28,14.41A257.3,257.3,0,0,1,459,217.11a16.17,16.17,0,0,1,3.56,7.46c9,55.26-1.79,106.45-31.86,153.62-1.29,2-2.74,4-4.11,6Z"/><path class="cls-1" d="M216.47,105.86c-56,6.1-108.69,21.41-155.83,53l-1.11-1.08c6.15-9.22,11.85-18.78,18.55-27.59a216.4,216.4,0,0,1,75.39-62.69c7.1-3.61,14.27-2.93,21.56-2.14C197.12,67.71,214.67,84.7,216.47,105.86Z"/><path class="cls-1" d="M199.41,50.88c27.65-6.9,54-7.24,80.85-4.08v58.1H237.92C233.37,81.36,222.61,62.51,199.41,50.88Z"/><path class="cls-1" d="M371.12,82.6C366,88,360.17,92.88,355.82,98.86s-7,12.76-10.45,19.21l-44.06-10.26V52C315,52,356.89,70.53,371.12,82.6Z"/><path class="cls-1" d="M366.19,126.15c.7-11.21,11.5-25.27,21.8-28,1.71-.46,4.5.73,6,2.06a215.57,215.57,0,0,1,50.57,67.42c1.08,2.26,2.1,4.55,3.13,6.84a12.77,12.77,0,0,1,.24,2.07A285.17,285.17,0,0,0,366.19,126.15Z"/></svg>