<svg id="Layer_1" data-name="Layer 1" xmlns="http://www.w3.org/2000/svg" viewBox="0 0 500 500"><defs><style>.cls-1{fill:#fff;}</style></defs><title>3</title><path d="M250.6,15c132.73.33,240.07,110.67,234.69,245.34-5,124-110.65,230.15-245,224.75C118.72,480.2,15.1,379.65,15.24,249.8,15.38,121.11,119.4,15.31,250.6,15ZM80.26,384.25c5.12,5.72,9.66,11,14.43,16.08,13.94,14.8,30.61,26.16,47.43,37.3,5.61,3.71,10.31,5.55,18.21,3,86.6-28,150.49-82.15,191.28-163.51,2.8-5.59,5.21-11.37,7.9-17.27-31.58-11.25-63.36-17.79-96.26-19-5.29-.19-8.22,1.24-11.09,5.85-36.76,59-87,102.44-151.25,129.43C94.33,378.87,87.64,381.35,80.26,384.25ZM220.51,122.5c.4,2.43.67,4.39,1,6.33,5.29,28,15.41,54.38,27.72,80,6.29,13.09,6.27,13,20.71,14,60.17,4.06,115.27,22.9,165.09,57,8.73,6,17.16,12.38,25.79,18.63a9,9,0,0,0,.69-1.48c8.34-33.55,6.22-67-.94-100.42-.86-4-2.49-8.85-5.43-11.29a210.48,210.48,0,0,0-24.87-17.53c-41.7-25.41-86.72-41.28-135.44-46.24A311.84,311.84,0,0,0,220.51,122.5Zm-21.67-82a18.34,18.34,0,0,0-2.46.39c-21.3,6.39-41.92,14.43-60.71,26.5-8.66,5.56-16.9,11.82-25.08,18.1a9.2,9.2,0,0,0-3.27,6.24c-.26,18.8-1.49,37.71.08,56.38,4.15,49.29,20,94.95,46.3,136.88,5.45,8.68,11.51,17,17.31,25.47,28.43-21.62,50.31-49.54,66.82-77.2.67-1.13.15-3.36-.47-4.79-6.74-15.4-14.6-30.39-20.26-46.16-15-41.9-20.61-85.31-18.28-129.75C199,48.56,198.84,44.59,198.84,40.45ZM181.28,455.19c.4.52.54.82.78,1a5,5,0,0,0,1.35.63c36.34,9.95,73,12.83,110.18,5.1,42.84-8.91,79.28-29.42,110-60.38,22.66-22.84,38.35-50.12,50.74-79.52,1.18-2.79.73-4.64-1.59-6.47-7.19-5.66-14.07-11.75-21.48-17.11a262.86,262.86,0,0,0-54.92-31.09Q318,402.1,181.28,455.19ZM86.57,109.76C28.44,176.34,12.75,280.53,68.26,366.49c31.8-9,60.38-24.61,87.89-43.1a339.79,339.79,0,0,1-53-100.53C91.06,186.5,85.89,149.07,86.57,109.76Zm130.89-6.32c81.94-10.13,156.3,7.72,225.44,49.4-8.87-17.92-19.54-34.24-32.85-48.57-49.13-52.9-110.68-74.09-181.8-70.16-9.95.55-9.93.8-10.54,10.68-.07,1.16-.24,2.33-.24,3.49C217.45,66.39,217.46,84.49,217.46,103.44Z"/><path class="cls-1" d="M80.26,384.25c7.38-2.9,14.07-5.38,20.65-8.14,64.23-27,114.49-70.4,151.25-129.43,2.87-4.61,5.8-6,11.09-5.85,32.9,1.22,64.68,7.76,96.26,19-2.69,5.9-5.1,11.68-7.9,17.27-40.79,81.36-104.68,135.5-191.28,163.51-7.9,2.56-12.6.72-18.21-3-16.82-11.14-33.49-22.5-47.43-37.3C89.92,395.26,85.38,390,80.26,384.25Z"/><path class="cls-1" d="M220.51,122.5a311.84,311.84,0,0,1,74.35-1.1c48.72,5,93.74,20.83,135.44,46.24a210.48,210.48,0,0,1,24.87,17.53c2.94,2.44,4.57,7.26,5.43,11.29,7.16,33.38,9.28,66.87.94,100.42a9,9,0,0,1-.69,1.48c-8.63-6.25-17.06-12.66-25.79-18.63-49.82-34.05-104.92-52.89-165.09-57-14.44-1-14.42-.89-20.71-14-12.31-25.59-22.43-52-27.72-80C221.18,126.89,220.91,124.93,220.51,122.5Z"/><path class="cls-1" d="M198.84,40.45c0,4.14.18,8.11,0,12.06-2.33,44.44,3.26,87.85,18.28,129.75,5.66,15.77,13.52,30.76,20.26,46.16.62,1.43,1.14,3.66.47,4.79-16.51,27.66-38.39,55.58-66.82,77.2-5.8-8.5-11.86-16.79-17.31-25.47-26.32-41.93-42.15-87.59-46.3-136.88-1.57-18.67-.34-37.58-.08-56.38a9.2,9.2,0,0,1,3.27-6.24c8.18-6.28,16.42-12.54,25.08-18.1,18.79-12.07,39.41-20.11,60.71-26.5A18.34,18.34,0,0,1,198.84,40.45Z"/><path class="cls-1" d="M181.28,455.19q136.47-53.38,195.06-187.87a262.86,262.86,0,0,1,54.92,31.09c7.41,5.36,14.29,11.45,21.48,17.11,2.32,1.83,2.77,3.68,1.59,6.47-12.39,29.4-28.08,56.68-50.74,79.52-30.72,31-67.16,51.47-110,60.38-37.17,7.73-73.84,4.85-110.18-5.1a5,5,0,0,1-1.35-.63C181.82,456,181.68,455.71,181.28,455.19Z"/><path class="cls-1" d="M86.57,109.76c-.68,39.31,4.49,76.74,16.55,113.1a339.79,339.79,0,0,0,53,100.53c-27.51,18.49-56.09,34.13-87.89,43.1C12.75,280.53,28.44,176.34,86.57,109.76Z"/><path class="cls-1" d="M217.46,103.44c0-19,0-37,0-55.16,0-1.16.17-2.33.24-3.49.61-9.88.59-10.13,10.54-10.68,71.12-3.93,132.67,17.26,181.8,70.16,13.31,14.33,24,30.65,32.85,48.57C373.76,111.16,299.4,93.31,217.46,103.44Z"/></svg>