<svg id="Layer_1" data-name="Layer 1" xmlns="http://www.w3.org/2000/svg" viewBox="0 0 500 500"><defs><style>.cls-1,.cls-2{stroke:#000;stroke-miterlimit:10;stroke-width:7px;}.cls-2{fill:#fff;}</style></defs><title>4</title><path class="cls-1" d="M483.61,174.42c-2.71,75.37-36.35,133.59-98.24,175.9-16.71,11.41-34.72,20.76-54.39,25.78-10.79,2.76-21.94,4-32.88,6.67-11.12,2.68-23.22,2.37-34.79,1.71-11.4-.65-22.78-2.9-34-5.37a131.3,131.3,0,0,1-22.67-7.68c-10.63-4.5-19.81-3-27.92,5.11q-34.87,34.77-69.68,69.6c-8.72,8.71-17.4,17.47-26.14,26.18-10.26,10.24-17.75,10.48-28.3.34S33.72,452.1,23.55,441.55c-8.91-9.25-8.54-17.3.64-26.48q47.21-47.19,94.42-94.35c10.61-10.59,12.22-18.75,6.44-32.49-12.44-29.52-14.66-60.27-10.91-91.72,6.5-11.37,4.1-24.92,8.88-36.62s9.64-23.47,15.79-34.48c27.37-49.06,67.91-82.84,120.9-101.27,35-12.16,70.79-14.56,106.72-4.63C422.31,35,459.1,70.61,476.51,126A163.58,163.58,0,0,1,483.61,174.42Zm-9.83-1.52c-.54-6-.87-13.14-1.86-20.22-6.31-44.69-27.43-80.4-65.61-105-35.67-23-75.19-29.06-116.16-20.9-69.77,13.9-119.61,54.33-150,118.5-4.45,9.4-7.25,19.6-10.52,29.53-.86,2.63-.67,5.3,2.53,7.27a66.64,66.64,0,0,1,12.22,9.33q80,79.76,159.79,159.78c4.18,4.19,7.35,9.38,11.2,13.92,1,1.22,2.94,2.62,4.27,2.46,4.91-.57,9.95-1.19,14.57-2.82a198.5,198.5,0,0,0,51.28-26.62C441,297.59,471.28,243.35,473.78,172.9ZM127,189.75c-1.33,4.16-2.78,7-3.1,10-3.07,28.38-1.66,56.41,9.93,82.89,8.05,18.38,4.61,33.07-9.57,46.93-31.09,30.38-61.6,61.37-92.37,92.09-5.94,5.94-6.12,7.73-.39,13.56q14.88,15.17,30,30.08c6.36,6.29,8.15,6.14,14.34-.07q47.47-47.59,95-95.12c11.17-11.17,24.25-14.47,38.86-8.17,28.35,12.22,57.8,15.05,88.1,11.14,2.84-.36,5.49-2.19,9-3.68-2.78-3.33-4.52-5.76-6.6-7.86Q278.56,339.71,256.79,318,196.72,257.9,136.61,197.86C134,195.22,130.89,193,127,189.75Z"/><path class="cls-2" d="M473.78,172.9c-2.5,70.45-32.78,124.69-88.33,165.25a198.5,198.5,0,0,1-51.28,26.62c-4.62,1.63-9.66,2.25-14.57,2.82-1.33.16-3.24-1.24-4.27-2.46-3.85-4.54-7-9.73-11.2-13.92q-79.75-80-159.79-159.78a66.64,66.64,0,0,0-12.22-9.33c-3.2-2-3.39-4.64-2.53-7.27,3.27-9.93,6.07-20.13,10.52-29.53,30.43-64.17,80.27-104.6,150-118.5,41-8.16,80.49-2.05,116.16,20.9,38.18,24.58,59.3,60.29,65.61,105C472.91,159.76,473.24,166.93,473.78,172.9Zm-173.1,9.42c29.14.25,53.9-24.59,54.13-54.29s-24.72-54.74-54.73-55c-29.28-.23-54.36,24.19-54.61,53.19C245.2,158.18,268.7,182.05,300.68,182.32Z"/><path class="cls-2" d="M127,189.75c3.91,3.27,7,5.47,9.63,8.11q60.13,60,120.18,120.15,21.73,21.74,43.42,43.51c2.08,2.1,3.82,4.53,6.6,7.86-3.54,1.49-6.19,3.32-9,3.68-30.3,3.91-59.75,1.08-88.1-11.14-14.61-6.3-27.69-3-38.86,8.17q-47.5,47.55-95,95.12c-6.19,6.21-8,6.36-14.34.07q-15.09-14.94-30-30.08c-5.73-5.83-5.55-7.62.39-13.56,30.77-30.72,61.28-61.71,92.37-92.09,14.18-13.86,17.62-28.55,9.57-46.93-11.59-26.48-13-54.51-9.93-82.89C124.2,196.76,125.65,193.91,127,189.75Z"/><path class="cls-1" d="M300.68,182.32c-32-.27-55.48-24.14-55.21-56.08.25-29,25.33-53.42,54.61-53.19,30,.24,55,25.31,54.73,55S329.82,182.57,300.68,182.32Zm-45.08-55c.46,26.46,19.79,45.43,45.89,45,23.77-.38,43.77-21.31,43.3-45.3s-21.27-44.17-45.47-43.88C275.29,83.42,255.2,103.72,255.6,127.3Z"/><path class="cls-2" d="M255.6,127.3c-.4-23.58,19.69-43.88,43.72-44.17,24.2-.29,45,19.78,45.47,43.88s-19.53,44.92-43.3,45.3C275.39,172.73,256.06,153.76,255.6,127.3Z"/></svg>