<svg id="Layer_1" data-name="Layer 1" xmlns="http://www.w3.org/2000/svg" viewBox="0 0 500 500"><defs><style>.cls-1{fill:#fff;}</style></defs><title>5</title><path d="M313.92,32.93v75.58h75.34v75.3h75.21c.13,2,.32,3.43.32,4.88,0,26.18-.05,52.36.09,78.53,0,3.3-1,5-4,6.46Q354.48,326.7,248.16,380c-13.85,6.93-27.73,13.8-41.52,20.83a25.53,25.53,0,0,0-6.4,4.65c-4.1,4.12-7.92,8.5-11.52,12.4L80.62,309.75a8.16,8.16,0,0,1,1.32-1.57c12.12-9.47,18.21-23,24.82-36.29Q164.92,155.16,223.2,38.48c2-4,4.2-5.75,9-5.69,25.17.3,50.34.14,75.51.14Zm-15.15,16a8.1,8.1,0,0,0-1.66-.65c-19.66,0-39.32-.15-59,0-1.43,0-3.42,1.8-4.16,3.27q-37.46,74.54-74.77,149.14c-1.49,3-1,4.58,1.25,6.77,9.08,8.83,18,17.84,26.89,26.84,2.63,2.66,5.07,5.5,7.68,8.35,1.23-1.39,1.69-1.87,2.1-2.38,29.88-37.33,59.39-75,89.84-111.81,8.7-10.52,13.09-20.86,12.06-34.6C297.9,79,298.77,63.93,298.77,48.91ZM207,252.4l38.16,38.48c.6-.43,1.42-1,2.19-1.6q62-49.6,123.93-99.34c1.59-1.28,2.59-4.18,2.62-6.35.21-16.66.12-33.32.12-50v-9.55c-2.07-.11-3.53-.24-5-.24-18.32,0-36.64.07-55-.09a7.93,7.93,0,0,0-7.05,3.49q-33.88,42.63-68,85.07C228.2,225.8,217.42,239.32,207,252.4Zm242.63-52.89c-1.69-.18-2.66-.37-3.62-.38-19.51,0-39-.09-58.51.1a11,11,0,0,0-6.17,2.48q-47.93,38.11-95.7,76.43c-10,8-19.92,16-29.7,23.87l38,37.91c.86-.38,2.08-.88,3.25-1.47q74.65-37.27,149.32-74.5c2.81-1.4,3.18-3.3,3.17-6-.08-15,0-30,0-45ZM196.3,265.77l-51.81,64.76,22.78,22.81L231.9,301.6ZM150,219.29c-2.6,5.17-5.22,10.35-7.81,15.54-9.92,19.8-19.87,39.58-29.65,59.44-.71,1.44-.89,4.2,0,5.17,6.45,7.14,13.23,14,20.26,21.26L185.33,255ZM177.3,364.83c7.26,7.13,14.18,14.05,21.33,20.74.78.73,3.1.58,4.28,0q36.47-18.06,72.8-36.34a15.11,15.11,0,0,0,2.08-1.38l-35-35.39Z"/><path d="M68.49,320.83l107.67,107.6c-42.41,58-109.86,45.61-136-.55-15.93-28.13-11.26-66,11.43-89.42C57.24,332.63,62.84,326.72,68.49,320.83Z"/><path class="cls-1" d="M298.77,48.91c0,15-.87,30.06.25,45,1,13.74-3.36,24.08-12.06,34.6-30.45,36.86-60,74.48-89.84,111.81-.41.51-.87,1-2.1,2.38-2.61-2.85-5.05-5.69-7.68-8.35-8.91-9-17.81-18-26.89-26.84-2.26-2.19-2.74-3.81-1.25-6.77Q196.65,126.16,234,51.55c.74-1.47,2.73-3.25,4.16-3.27,19.66-.17,39.32-.07,59,0A8.1,8.1,0,0,1,298.77,48.91Z"/><path class="cls-1" d="M207,252.4c10.44-13.08,21.22-26.6,32-40.1q34-42.53,68-85.07a7.93,7.93,0,0,1,7.05-3.49c18.32.16,36.64.07,55,.09,1.46,0,2.92.13,5,.24v9.55c0,16.65.09,33.31-.12,50,0,2.17-1,5.07-2.62,6.35q-61.83,49.83-123.93,99.34c-.77.61-1.59,1.17-2.19,1.6Z"/><path class="cls-1" d="M449.61,199.51V213c0,15,0,30,0,45,0,2.69-.36,4.59-3.17,6q-74.72,37.16-149.32,74.5c-1.17.59-2.39,1.09-3.25,1.47l-38-37.91c9.78-7.87,19.73-15.89,29.7-23.87q47.82-38.26,95.7-76.43a11,11,0,0,1,6.17-2.48c19.5-.19,39-.11,58.51-.1C447,199.14,447.92,199.33,449.61,199.51Z"/><path class="cls-1" d="M196.3,265.77l35.6,35.83-64.63,51.74-22.78-22.81Z"/><path class="cls-1" d="M150,219.29,185.33,255,132.82,320.7c-7-7.29-13.81-14.12-20.26-21.26-.88-1-.7-3.73,0-5.17,9.78-19.86,19.73-39.64,29.65-59.44C144.81,229.64,147.43,224.46,150,219.29Z"/><path class="cls-1" d="M177.3,364.83l65.47-52.37,35,35.39a15.11,15.11,0,0,1-2.08,1.38q-36.37,18.22-72.8,36.34c-1.18.58-3.5.73-4.28,0C191.48,378.88,184.56,372,177.3,364.83Z"/></svg>