<svg id="Layer_1" data-name="Layer 1" xmlns="http://www.w3.org/2000/svg" viewBox="0 0 500 500"><defs><style>.cls-1{fill:#fff;}</style></defs><title>6</title><path d="M253.64,472H136.76c-11.36,0-18.26-6.56-18.8-18.23-.28-6.2.06-12.42-.13-18.63-.3-10.14-.62-20.28-1.28-30.4a34.42,34.42,0,0,1,10.62-28c5.62-5.55,11.07-11.28,16.81-16.7,4.31-4.06,6.34-8.87,5.5-14.65a7.69,7.69,0,0,0-2.76-4.79c-12.39-8.58-15.44-21.78-7.08-34.34,18.61-28,28.59-59.18,33.26-92,3-21.36,4.06-43,5.61-64.57a14,14,0,0,0-2.92-8.56c-6.8-9-14.27-17.5-21-26.56A18.72,18.72,0,0,1,151,104.28c-.3-26-.19-51.94-.14-77.92,0-7.9,3.49-11.33,11.37-11.41,7.53-.07,15.06.06,22.59,0,4.88-.06,8.2,2,10.19,6.49,3.88,8.76,8.2,17.34,11.7,26.25,1.67,4.27,4.6,3.44,7.68,3.68,3.51.28,3.81-2.06,4.43-4.54,2-8,4.19-16,6.19-24,1.35-5.37,4.8-7.83,10.19-7.83,12.05,0,24.1,0,36.14,0,8,0,10.61,2.1,12.66,10,1.89,7.28,3.5,14.63,5.68,21.82A7.36,7.36,0,0,0,294,51.1c3,.81,6,.6,7.59-3.53,3.38-8.55,7.59-16.78,11.2-25.24,2.19-5.14,5.69-7.58,11.33-7.44,7.52.19,15.05,0,22.58.08,7,.1,10.54,3.43,10.57,10.37.09,26.73.14,53.45-.11,80.18a15.62,15.62,0,0,1-3.25,8.63c-7.05,9.29-14.61,18.19-21.72,27.43a12.1,12.1,0,0,0-2.61,7c.78,35.46,4.06,70.59,14.53,104.71,5.6,18.23,13.05,35.62,23.67,51.56,9.05,13.58,6.69,26.36-6.46,35.66-4,2.82-3.69,12.18.94,17.16,5.38,5.78,10.91,11.45,16.73,16.79,9.76,8.93,13.48,19.65,12.52,32.87-1.05,14.43-.56,28.95-1.15,43.42a32.84,32.84,0,0,1-2.82,12.44c-2.67,5.64-6.91,9-14.16,8.93C333.44,471.8,293.54,472,253.64,472Zm-56-321c-.17,1.76-.41,3.21-.44,4.67a416.86,416.86,0,0,1-9.09,79.44c-6.22,28.29-15.83,55.21-31.69,79.69-1.37,2.13-2.76,6-1.77,7.47,1.31,1.91,5,3.07,7.61,3.08q91.73.24,183.44,0c2.67,0,6.67-1,7.64-2.87s-.29-5.76-1.74-8A219.12,219.12,0,0,1,328,264.07c-9.42-29-14.33-58.72-15.93-89.08-.42-8-1.05-16-1.59-24ZM168,344.14c1.78,15.85-6.85,26-17.24,35.33a135,135,0,0,0-10.74,10.79,21.91,21.91,0,0,0-4.35,7.1c-2.27,6.63-.84,8.43,6,8.43H372.42c1.48-6.28.16-11.11-3.8-15.17-4.47-4.58-8.81-9.31-13.61-13.52-9.7-8.49-15.88-18.47-15-31.88,0-.27-.4-.58-.77-1.08ZM371.87,425H136.28c0,7.92,0,15.41,0,22.9,0,8,.6,8.61,8.71,8.61h218c1.5,0,3.29.48,4.45-.16,1.72-1,4.21-2.66,4.28-4.14C372.07,443.25,371.87,434.26,371.87,425ZM338.21,70.52H170V97h168.2Zm-10,46h-148c3.57,4.51,6.27,8.56,9.67,11.92,1.87,1.85,4.89,3.57,7.4,3.58q57,.33,114.06.05a9.67,9.67,0,0,0,6.33-2.45C321.18,125.85,324.19,121.52,328.16,116.51ZM271.23,51.08c-1.2-5-1.93-9.48-3.42-13.67-.57-1.58-2.82-3.5-4.41-3.61a178.94,178.94,0,0,0-18.53-.07c-1.34.05-3.49,1-3.83,2.07-1.6,4.87-2.7,9.91-4.08,15.28Zm-83.38,0c-1.87-4.19-3.52-7.89-5.19-11.58-2.95-6.52-6.06-7.59-12.61-4.55V51ZM338.26,32.76c-4.18,1.06-9,.83-10.61,3-3.27,4.26-4.8,9.85-7.18,15.21h17.79Z"/><path class="cls-1" d="M197.63,151H310.49c.54,8,1.17,16,1.59,24,1.6,30.36,6.51,60.12,15.93,89.08a219.12,219.12,0,0,0,23.58,50.4c1.45,2.27,2.74,6.15,1.74,8s-5,2.86-7.64,2.87q-91.72.22-183.44,0c-2.65,0-6.3-1.17-7.61-3.08-1-1.45.4-5.34,1.77-7.47,15.86-24.48,25.47-51.4,31.69-79.69a416.86,416.86,0,0,0,9.09-79.44C197.22,154.22,197.46,152.77,197.63,151Z"/><path class="cls-1" d="M168,344.14H339.26c.37.5.79.81.77,1.08-.9,13.41,5.28,23.39,15,31.88,4.8,4.21,9.14,8.94,13.61,13.52,4,4.06,5.28,8.89,3.8,15.17H141.71c-6.85,0-8.28-1.8-6-8.43a21.91,21.91,0,0,1,4.35-7.1,135,135,0,0,1,10.74-10.79C161.18,370.14,169.81,360,168,344.14Z"/><path class="cls-1" d="M371.87,425c0,9.25.2,18.24-.2,27.21-.07,1.48-2.56,3.18-4.28,4.14-1.16.64-2.95.16-4.45.16H145c-8.11,0-8.69-.57-8.71-8.61,0-7.49,0-15,0-22.9Z"/><path class="cls-1" d="M338.21,70.52V97H170V70.52Z"/><path class="cls-1" d="M328.16,116.51c-4,5-7,9.34-10.59,13.1a9.67,9.67,0,0,1-6.33,2.45q-57,.23-114.06-.05c-2.51,0-5.53-1.73-7.4-3.58-3.4-3.36-6.1-7.41-9.67-11.92Z"/><path class="cls-1" d="M271.23,51.08H237c1.38-5.37,2.48-10.41,4.08-15.28.34-1,2.49-2,3.83-2.07a178.94,178.94,0,0,1,18.53.07c1.59.11,3.84,2,4.41,3.61C269.3,41.6,270,46.07,271.23,51.08Z"/><path class="cls-1" d="M187.85,51h-17.8V34.9c6.55-3,9.66-2,12.61,4.55C184.33,43.14,186,46.84,187.85,51Z"/><path class="cls-1" d="M338.26,32.76V51H320.47c2.38-5.36,3.91-10.95,7.18-15.21C329.3,33.59,334.08,33.82,338.26,32.76Z"/></svg>