<svg id="Layer_1" data-name="Layer 1" xmlns="http://www.w3.org/2000/svg" viewBox="0 0 500 500"><title>7</title><path d="M237.39,283.66c-1.84,1.5-3.69,3.08-5.62,4.56-6.61,5.07-12.06,5.21-17.19-1.28-4.29-5.44-8.14-2.63-12.44-1.32-4.06,1.24-5,4.5-5.28,8.18a1.64,1.64,0,0,1,0,.5c-4.77,12.67-8.65,25.77-14.62,37.84-4.46,9-16.29,9.46-23.95,2.62-4.47-4-9.17-7.7-13.56-11.76a5.5,5.5,0,0,1-1.24-4.06c.55-5.83-1.6-10.75-4-15.88-1.68-3.55-1.67-7.9-2.52-11.86-1.06-5-1.36-10.34-3.59-14.73-2.32-4.57-3.88-9-3.3-13.92a124.41,124.41,0,0,1,3.25-19.1c1.71-6.18,4.65-11.7,6.53-17.68,1.8-5.69,1-8.09-4.44-10s-9.32-8.39-9-14c.09-1.41-1.07-3-1.89-4.34-4.07-6.81-8.46-13.46-6.7-22.09,1.86-9.16,9.18-17.46,16.95-18.88,8.86-1.62,19.3,3,24,11.27,2.21,3.88,3.42,8.32,5.13,12.49,1,2.38,2.06,4.72,3.46,7.92,1.76-2.46,2.91-3.86,3.83-5.4,3.73-6.26,12.91-5.17,16.28-12.07.31-.63,2.54-.48,3.87-.43,4.93.18,9.5.22,10.82-6.28.28-1.4,3.07-2.27,4.66-3.44,4.75-3.5,10.36-2.54,15.55-2.46,4.65.07,7.67-1.83,10.54-4.83,1.62-1.71,3.19-3.48,4.87-5.12,3.1-3,6.38-3.67,10.55-1.69,5.37,2.55,11,4,15.32,9,3.73,4.26,9.27,2.28,12.77-2.59,4.55-6.33,9.64-12.26,14.2-18.58a11.12,11.12,0,0,0,2-6.38,15.84,15.84,0,0,1,4.88-12.27c3.54-3.52,5-7.7,5.34-12.68A18.33,18.33,0,0,1,306,93.71c12.17-16.09,24.66-31.94,37.44-48.38l5.46,4.82a16.35,16.35,0,0,0,1.93-2.6c2.48-5.27,5.52-9.81,11.22-12.37,2-.92,3.23-3.75,4.85-5.67,3-3.57,6.28-3.89,8.62,0a46.6,46.6,0,0,1,5.06,13c1,4.21,1.84,8.91.93,13s-3.93,7.8-6.43,11.38c-.41.58-3.28,0-4.48-.75-.86-.58-1-2.45-1.19-3.78a51.17,51.17,0,0,1,0-5.4c-2.06.26-4.42,0-6.1.91-2.43,1.34-4.36,3.57-6.41,5.33,5.28,11,5,12.21-3.14,21a22,22,0,0,0-3.33,5.55q-9.61,20.28-19.11,40.62c-4.75,10.22-9.07,20.64-14.08,30.73-3.49,7-7.95,13.56-11.76,20.44-2.9,5.23-5.59,10.59-8.15,16-4.24,8.93-9,17.71-12.18,27-1.89,5.52-3.51,13.13-1.17,17.72,6.42,12.57,4.28,24-.33,36a27.48,27.48,0,0,0-1.84,7.7c-.76,10.24-1.43,20.49-1.82,30.76-.26,7,.13,14.09,0,21.14-.13,8.54-1.32,17.17-.53,25.62,1.23,13.37,3.58,26.65,5.73,39.93,2.41,14.84,2.54,14.82-12.42,17.78-1,.2-2,.37-3,.56-10.59,2.07-10.84,2.05-11.64,13.11a53.82,53.82,0,0,0,1,14.49c1.66,8.22-1.25,13.35-9.85,13.82a32.82,32.82,0,0,0-19,7c-2.9,2.2-7.06,3.14-10.8,3.76-5,.84-8-3.3-5.66-7.93a12.9,12.9,0,0,1,5.55-5.49c14.37-6.8,21.19-19,21.89-33.85.59-12.65-1.55-25.42-2.46-38.14-.35-4.86-1-9.73-.84-14.56a13.92,13.92,0,0,1,2.81-7.93c3.54-4.24,3.35-8.4,1.75-13.17-1.84-5.5-3.15-10.84,1.65-16.07,1.52-1.66,1.48-5.59.89-8.19-3.25-14.45-7.14-28.77-6.69-43.78C238.39,284.55,238,284.32,237.39,283.66Z"/></svg>