<svg id="Layer_1" data-name="Layer 1" xmlns="http://www.w3.org/2000/svg" viewBox="0 0 500 500"><title>8</title><path d="M178.17,454.63l-8.65-4.5c.69,4.15,1.11,7.33,1.77,10.45,1,4.61-.67,7.32-5.4,8-1.37.2-2.78.76-4.11.61-16.51-1.84-32.68.82-48.9,3.32a73.59,73.59,0,0,1-12.86.55c-1.53,0-3-1.21-5.14-2.13,5-4.62,8.66-9.59,15.69-8.44a4.34,4.34,0,0,0,2.81-.68c8.82-5.71,17.66-11.4,26.32-17.36,2-1.39,3.37-3.74,5.26-5.93l-4.4-3.54c6.42-28.6,12.71-56.56,19-84.53,1.64-7.35,2.78-14.83,4.87-22.05A31.71,31.71,0,0,1,170.28,317c7.49-8.88,15.3-17.53,23.45-25.83,6.91-7,14.33-13.62,21.81-20.08,3.32-2.87,7.36-4.89,11-7.38,4-2.69,5.83-5.74,3.6-10.94-1.52-3.56-1.38-7.83-2-11.8-.34-2.31-.63-4.63-1.17-8.59-4.19,7.78-5,7.86-10.28,3.27-5.23,8.68-10.49,17.46-15.81,26.2a11,11,0,0,1-2.68,3.18c-16.12,11.6-23.87,29.66-35,45.12-.68.94-1.52,1.76-2.8,3.23L138.88,300c-17,10.77-42.37,15.57-56.07,10.16,4.42-7.12,12.6-8.36,18.32-13.68-3.6.94-7.17,2-10.81,2.75-1.33.27-2.82-.19-4.24-.32.7-1.25,1.1-3.22,2.14-3.64,8.58-3.54,17.1-8.79,26-9.62,10.74-1,18.9-5.37,26.35-11.93A190,190,0,0,0,160.17,254c3.58-4.23,5.53-9.83,8.27-14.78a15.18,15.18,0,0,1,2.33-3.31c2.72-2.7,6.06-4.92,8.26-8a234.41,234.41,0,0,0,12.71-19.8,21,21,0,0,0,2.27-8.49c1.21-13,1.84-26.06,6.73-38.43a33.36,33.36,0,0,0,1.9-9.15c.12-1.39-.59-3.52-1.65-4.23-10.32-6.9-21.68-11.6-34.17-10.84-8.14.5-15.1-1.3-21-6.2-7.35-6-14.56-5.85-23.22-3.06-5,1.6-11.09.19-16.62-.46-1.26-.15-2.89-2.61-3.19-4.23-.43-2.24.06-4.71.46-7,2.11-12.48-1.66-18.85-13.63-23.34A24.41,24.41,0,0,1,81,87c2.45-.22,5.21-1.26,7.31-.5,5.57,2,8,.71,10.92-4.85,5.48-10.52,12.25-20.61,27.38-20.77-.69,2.5-1.23,4.42-1.76,6.36l5.51.93-15.82,19c13.16,2.51,25.22,4.07,36.84,7.24S173,105.84,186.6,106.51C182.82,87.32,174,69.4,182,49.21c6.81,3.67,13.65,7.1,20.2,11a12.38,12.38,0,0,0,10.54,1.59c7.88-2.18,14-.49,20.86,5.56,7.14,6.29,6.88,12.33,6.33,20-.36,5,.69,10.21,1.29,15.3a4.17,4.17,0,0,0,1.69,2.91c12.27,5.91,18.1,17.3,22.58,28.84,8.28,21.34,17.24,42.18,30.68,60.88,2.55,3.56,4.59,7.49,7.23,11.85l-5.56,2.76c1.53,6,3.63,11.27,8.53,16.07a100.53,100.53,0,0,1,17.84,22.85c3.69,6.7,4.63,15,6.47,22.61,1.67,7,3.52,13.52,8.19,19.4,4.21,5.29,6.74,11.87,10.35,17.68,2.11,3.41,4.9,6.4,7.34,9.61,3.79,5,8.61,9.56,11,15.15s6.24,8.67,11.06,11.58c18.21,11,36.93,21.17,49.64,39.34,9.53,13.62,20.17,26.47,30.33,39.65,4.91,6.36,9.87,12.68,14.82,19,2.25,2.88,4.09,6.75.76,9-8.17,5.45-13.8,15.25-25.18,15.38-5.91.07-11.83.21-17.72-.08-3.79-.19-4.21-2.58-2.14-5.33,3.06-4.08,6.41-7.94,9.45-12a70.13,70.13,0,0,0,4-6.65l-1.4-1.18c-1.69,1.15-3.31,2.45-5.1,3.44-5.37,3-10.69,6-16.25,8.62-4.21,2-7.13.82-9.31-4-2.07-4.55-5.59-8.5-8.77-12.49-3.69-4.64-8.23-8.7-11.47-13.62-8.65-13.1-19.61-23.78-31.94-33.37-9.08-7.06-17.4-15.1-26.39-22.29a18.84,18.84,0,0,0-9.49-3.79c-14.61-1.37-29.26-2.21-43.9-3.31a14.45,14.45,0,0,1-3.95-1.13q-20.44-7.83-40.81-15.67c-6.61,8-12.6,15.67-19,22.95-10,11.39-13.34,25.83-18.44,39.46-4.16,11.13-8,22.39-12.1,33.53C182.5,444.91,180.4,449.38,178.17,454.63Z"/></svg>