<svg id="Layer_1" data-name="Layer 1" xmlns="http://www.w3.org/2000/svg" viewBox="0 0 500 500"><title>9</title><path d="M207.92,256.1c-9.37-5.8-18.29-10.9-26.69-16.74a18.55,18.55,0,0,1-6.72-9.09c-3.11-10.22-5.32-20.71-7.92-31.08-.46-1.81-.63-4-1.74-5.3-6.34-7.41-4.82-15.26-1.4-23.06,5.12-11.68,12.12-22.79,15.48-34.93,3.76-13.6,9.34-23.4,24.13-26,2-.36,4.23-2.18,5.53-3.94,5.61-7.53,12.17-12.77,22.5-10.29,1.92-9.86,2.57-18.16-3.57-26.86C219,56.72,216.84,43,224.61,29.08c-7.45-5.24-15.65-5.26-23.8-4.46-5.15.51-6.28,4.71-5.34,9,1.21,5.51,3.07,10.89,4.72,16.3,4.54,14.9.15,21.15-16.35,22.18,3.54-8.48-1-15.32-4.12-22.46-.93-2.11-1.92-4.19-2.75-6.34-6.7-17.43,5.67-33.4,24.3-30.55,6.63,1,13.08,4.21,19.19,7.26,4.38,2.19,7.21,3.75,10.84-1.41,5.62-8,13.8-12.29,23.79-11.8,6.47.32,13.31.23,19.28,2.33,22.12,7.79,26.17,17,25.9,38.21-.08,6,.47,12,.67,18,0,1,.19,2.41-.37,3-6.4,6.63-9.93,14.66-12.3,23.42-.3,1.11-3,2.16-4.58,2.21-2.84.1-5.71-.58-8.57-.94l-.63,1.45c2.58,1.26,5.06,3.31,7.74,3.6,7.43.81,14.94.89,22.42,1.25a37.88,37.88,0,0,1,5,.21c15,2.81,30.17,5.32,45.09,8.7,7.92,1.78,15.46,5.19,23.24,7.66,2,.64,4.64,1.38,6.37.63,6.93-3,13.58-6.61,20.42-9.81,2.57-1.21,5.42-1.83,8.08-2.87,1.66-.65,3.76-1.17,4.71-2.45,8.35-11.28,16.49-22.72,24.68-34.12,2.75-3.82.66-6.92-1.87-9.51-5.86-6-5.19-14-6.49-21.19-.34-1.87,3.81-4.58,6-6.85.2-.22.81-.05,1.23-.08,19.71-1.72,19.77-1.16,19.46,18.43-.2,12.73-4.81,23.57-10.32,34.54-6.39,12.74-12,25.9-18.09,38.78-2.29,4.8-3.11,9.4-.79,14.39a39.12,39.12,0,0,1,2.21,6.55c2.72,10.3-.43,16.95-9.75,21.93-15.91,8.51-32.38,13.93-50.78,15-26.74,1.48-44.35,18.11-57.43,39.88-1.86,3.11.13,8.42,0,12.69-.12,2.92-1.42,5.84-1.27,8.72.29,5.43,1.31,10.82,1.93,16.25,1.2,10.53,10.9,11.93,17.63,16.53,22.31,15.24,44.69,30.39,66.92,45.76,9.32,6.44,18.37,13.27,27.44,20.07,5.72,4.3,9.17,10,11.05,17.05,8.4,31.61,17.22,63.11,25.69,94.7,2.73,10.16-.41,15.05-10.69,18-2,.57-4,1-7.45,1.87,1.9,4.25,3.61,8.32,5.53,12.29,3.61,7.45,1.76,11.79-6.42,13.84A151.56,151.56,0,0,1,430,499.91c-5.45.75-8.8-3.33-7.34-8.62a53.3,53.3,0,0,1,2.52-7.12c1.56-3.64.81-6-1.87-9.34-2.39-2.95-3.27-8.19-2.76-12.16.91-7.07-.69-12.74-4.09-19-9.72-17.87-21.55-33.76-36.69-47.54-11-10-20.2-21.85-30.65-32.44-9.37-9.49-22.06-12.76-34.41-15.93-8.24-2.11-9.76-.18-9.74,8.41,0,13.19,0,26.38,0,39.83-6.93,1.59-7.18,1.47-7.8-6.19-1.09-13.37-2.1-26.74-3.1-39.45l-63.65-3c-.52,4.45-1.17,10-1.93,16.36l-14.15-1.13V343.41c-11-7.24-21-6.74-30.64,1.89-4.37,3.92-9.17,7.36-13.85,10.92-10.64,8.07-18,18.64-23.72,30.53-1.25,2.59-2.85,5.43-5.09,7.05-17.35,12.59-24.87,32.48-36.5,49.26-2.16,3.13-1.06,8.92-.57,13.39.56,5-.35,10.31-5.41,10.31-13.71,0-18.06,10.9-24.84,19.14-4.2,5.1-8.57,5.22-19.4.37-4.36-1.95-6.48-5.08-5.6-9.93.15-.82,0-2,.53-2.39,9-6.7,7.11-17.7,10.49-26.58,3.5-9.19,5.63-18.89,8.69-28.26,5.64-17.26,8.15-35.06,10.47-53,2-15.47,10.24-27.46,22.74-37,17.53-13.38,35.06-26.85,51.57-41.43,14.43-12.74,30.17-22.57,48.3-28.75C203.43,258.27,205.26,257.28,207.92,256.1Z"/></svg>